# 3ds Max Wavefront OBJ Exporter v0.97b - (c)2007 guruware
# File Created: 13.09.2018 15:45:43

mtllib TableTop2.mtl

#
# object Group21042
#

v  -0.6642 1.9203 3.0378
v  -0.6642 1.9203 -11.5804
v  -3.5152 1.9203 -11.2987
v  -6.2578 1.9203 -10.4674
v  -8.7850 1.9203 -9.1164
v  -11.0005 1.9203 -7.2985
v  -12.8184 1.9203 -5.0831
v  -14.1693 1.9203 -2.5558
v  -15.0007 1.9203 0.1868
v  -15.2823 1.9203 3.0378
v  -15.0007 1.9203 5.8888
v  -14.1693 1.9203 8.6314
v  -12.8184 1.9203 11.1587
v  -11.0005 1.9203 13.3741
v  -8.7850 1.9203 15.1920
v  -6.2578 1.9203 16.5429
v  -3.5152 1.9203 17.3743
v  -0.6642 1.9203 17.6559
v  2.1868 1.9203 17.3743
v  4.9294 1.9203 16.5429
v  7.4567 1.9203 15.1920
v  9.6721 1.9203 13.3741
v  11.4900 1.9203 11.1587
v  12.8410 1.9203 8.6314
v  13.6723 1.9203 5.8888
v  13.9540 1.9203 3.0378
v  13.6723 1.9203 0.1868
v  12.8410 1.9203 -2.5558
v  11.4900 1.9203 -5.0831
v  9.6721 1.9203 -7.2985
v  7.4567 1.9203 -9.1164
v  4.9294 1.9203 -10.4674
v  2.1868 1.9203 -11.2987
v  -0.6642 -0.9308 -11.5804
v  -3.5152 -0.9308 -11.2987
v  -6.2578 -0.9308 -10.4674
v  -8.7850 -0.9308 -9.1164
v  -11.0005 -0.9308 -7.2985
v  -12.8184 -0.9308 -5.0831
v  -14.1693 -0.9308 -2.5558
v  -15.0007 -0.9308 0.1868
v  -15.2823 -0.9308 3.0378
v  -15.0007 -0.9308 5.8888
v  -14.1693 -0.9308 8.6314
v  -12.8184 -0.9308 11.1587
v  -11.0005 -0.9308 13.3741
v  -8.7850 -0.9308 15.1920
v  -6.2578 -0.9308 16.5429
v  -3.5152 -0.9308 17.3743
v  -0.6642 -0.9308 17.6559
v  2.1868 -0.9308 17.3743
v  4.9294 -0.9308 16.5429
v  7.4567 -0.9308 15.1920
v  9.6721 -0.9308 13.3741
v  11.4900 -0.9308 11.1587
v  12.8410 -0.9308 8.6314
v  13.6723 -0.9308 5.8888
v  13.9540 -0.9308 3.0378
v  13.6723 -0.9308 0.1868
v  12.8410 -0.9308 -2.5558
v  11.4900 -0.9308 -5.0831
v  9.6721 -0.9308 -7.2985
v  7.4567 -0.9308 -9.1164
v  4.9294 -0.9308 -10.4674
v  2.1868 -0.9308 -11.2987
v  -0.6642 -0.9308 3.0378
# 66 vertices

vn 0.0000 1.0000 -0.0000
vn 0.0000 0.6857 -0.7279
vn -0.1420 0.6857 -0.7139
vn -0.2786 0.6857 -0.6725
vn -0.4044 0.6857 -0.6052
vn -0.5147 0.6857 -0.5147
vn -0.6052 0.6857 -0.4044
vn -0.6725 0.6857 -0.2786
vn -0.7139 0.6857 -0.1420
vn -0.7279 0.6857 0.0000
vn -0.7139 0.6857 0.1420
vn -0.6724 0.6857 0.2785
vn -0.6052 0.6857 0.4044
vn -0.5147 0.6857 0.5147
vn -0.4044 0.6857 0.6052
vn -0.2786 0.6857 0.6725
vn -0.1420 0.6857 0.7139
vn 0.0000 0.6857 0.7279
vn 0.1420 0.6857 0.7139
vn 0.2785 0.6858 0.6724
vn 0.4044 0.6857 0.6052
vn 0.5147 0.6857 0.5147
vn 0.6052 0.6857 0.4044
vn 0.6724 0.6857 0.2785
vn 0.7139 0.6857 0.1420
vn 0.7279 0.6857 0.0000
vn 0.7139 0.6857 -0.1420
vn 0.6724 0.6857 -0.2785
vn 0.6052 0.6857 -0.4044
vn 0.5147 0.6857 -0.5147
vn 0.4044 0.6857 -0.6052
vn 0.2785 0.6857 -0.6724
vn 0.1420 0.6857 -0.7139
vn 0.0000 -0.6857 -0.7279
vn -0.1420 -0.6857 -0.7139
vn -0.2786 -0.6857 -0.6725
vn -0.4044 -0.6857 -0.6052
vn -0.5147 -0.6857 -0.5147
vn -0.6052 -0.6857 -0.4044
vn -0.6725 -0.6857 -0.2786
vn -0.7139 -0.6857 -0.1420
vn -0.7279 -0.6857 0.0000
vn -0.7139 -0.6857 0.1420
vn -0.6724 -0.6857 0.2785
vn -0.6052 -0.6857 0.4044
vn -0.5147 -0.6857 0.5147
vn -0.4044 -0.6857 0.6052
vn -0.2786 -0.6857 0.6725
vn -0.1420 -0.6857 0.7139
vn 0.0000 -0.6857 0.7279
vn 0.1420 -0.6857 0.7139
vn 0.2785 -0.6857 0.6724
vn 0.4044 -0.6857 0.6052
vn 0.5147 -0.6857 0.5147
vn 0.6052 -0.6857 0.4044
vn 0.6724 -0.6857 0.2785
vn 0.7139 -0.6857 0.1420
vn 0.7279 -0.6857 0.0000
vn 0.7139 -0.6857 -0.1420
vn 0.6725 -0.6857 -0.2786
vn 0.6052 -0.6857 -0.4044
vn 0.5147 -0.6857 -0.5147
vn 0.4044 -0.6857 -0.6052
vn 0.2786 -0.6857 -0.6725
vn 0.1420 -0.6857 -0.7139
vn 0.0000 -1.0000 -0.0000
# 66 vertex normals

vt 0.1181 0.8783 0.0000
vt 0.1181 0.7720 0.0000
vt 0.1389 0.7740 0.0000
vt 0.1588 0.7801 0.0000
vt 0.1772 0.7899 0.0000
vt 0.1933 0.8031 0.0000
vt 0.2065 0.8192 0.0000
vt 0.2163 0.8376 0.0000
vt 0.2224 0.8576 0.0000
vt 0.2244 0.8783 0.0000
vt 0.2224 0.8991 0.0000
vt 0.2163 0.9190 0.0000
vt 0.2065 0.9374 0.0000
vt 0.1933 0.9535 0.0000
vt 0.1772 0.9667 0.0000
vt 0.1588 0.9765 0.0000
vt 0.1389 0.9826 0.0000
vt 0.1181 0.9846 0.0000
vt 0.0974 0.9826 0.0000
vt 0.0774 0.9765 0.0000
vt 0.0590 0.9667 0.0000
vt 0.0429 0.9535 0.0000
vt 0.0297 0.9374 0.0000
vt 0.0199 0.9190 0.0000
vt 0.0138 0.8991 0.0000
vt 0.0118 0.8783 0.0000
vt 0.0138 0.8576 0.0000
vt 0.0199 0.8376 0.0000
vt 0.0297 0.8192 0.0000
vt 0.0429 0.8031 0.0000
vt 0.0590 0.7899 0.0000
vt 0.0774 0.7801 0.0000
vt 0.0974 0.7740 0.0000
vt 0.4495 0.1619 0.0000
vt 0.4199 0.1709 0.0000
vt 0.4105 0.1411 0.0000
vt 0.4409 0.1319 0.0000
vt 0.4793 0.1537 0.0000
vt 0.4715 0.1235 0.0000
vt 0.5094 0.1463 0.0000
vt 0.5024 0.1159 0.0000
vt 0.5396 0.1399 0.0000
vt 0.5335 0.1092 0.0000
vt 0.5702 0.1343 0.0000
vt 0.5646 0.1036 0.0000
vt 0.6011 0.1287 0.0000
vt 0.5955 0.0980 0.0000
vt 0.6319 0.1231 0.0000
vt 0.6264 0.0924 0.0000
vt 0.6628 0.1175 0.0000
vt 0.6572 0.0868 0.0000
vt 0.6937 0.1119 0.0000
vt 0.6881 0.0812 0.0000
vt 0.7245 0.1063 0.0000
vt 0.7190 0.0756 0.0000
vt 0.7554 0.1007 0.0000
vt 0.7498 0.0700 0.0000
vt 0.7863 0.0951 0.0000
vt 0.7807 0.0644 0.0000
vt 0.8172 0.0894 0.0000
vt 0.8115 0.0587 0.0000
vt 0.8480 0.0837 0.0000
vt 0.8424 0.0530 0.0000
vt 0.8789 0.0780 0.0000
vt 0.8732 0.0473 0.0000
vt 0.9098 0.0723 0.0000
vt 0.9041 0.0416 0.0000
vt 0.9406 0.0666 0.0000
vt 0.9349 0.0359 0.0000
vt 0.9714 0.0609 0.0000
vt 0.9657 0.0302 0.0000
vt 0.0465 0.3290 0.0000
vt 0.0181 0.3424 0.0000
vt 0.0048 0.3141 0.0000
vt 0.0332 0.3008 0.0000
vt 0.0749 0.3157 0.0000
vt 0.0616 0.2874 0.0000
vt 0.1033 0.3024 0.0000
vt 0.0901 0.2741 0.0000
vt 0.1317 0.2891 0.0000
vt 0.1185 0.2608 0.0000
vt 0.1601 0.2760 0.0000
vt 0.1470 0.2476 0.0000
vt 0.1885 0.2629 0.0000
vt 0.1756 0.2345 0.0000
vt 0.2170 0.2501 0.0000
vt 0.2044 0.2216 0.0000
vt 0.2456 0.2375 0.0000
vt 0.2332 0.2089 0.0000
vt 0.2743 0.2252 0.0000
vt 0.2622 0.1965 0.0000
vt 0.3031 0.2134 0.0000
vt 0.2914 0.1844 0.0000
vt 0.3320 0.2019 0.0000
vt 0.3208 0.1728 0.0000
vt 0.3611 0.1910 0.0000
vt 0.3504 0.1616 0.0000
vt 0.3904 0.1806 0.0000
vt 0.3803 0.1511 0.0000
vt 0.5870 0.9828 0.0000
vt 0.5870 0.5870 0.0000
vt 0.6643 0.9753 0.0000
vt 0.7385 0.9530 0.0000
vt 0.8069 0.9162 0.0000
vt 0.8671 0.8670 0.0000
vt 0.9162 0.8069 0.0000
vt 0.9530 0.7385 0.0000
vt 0.9753 0.6643 0.0000
vt 0.9829 0.5870 0.0000
vt 0.9753 0.5100 0.0000
vt 0.9530 0.4358 0.0000
vt 0.9162 0.3674 0.0000
vt 0.8671 0.3073 0.0000
vt 0.8069 0.2581 0.0000
vt 0.7385 0.2214 0.0000
vt 0.6643 0.1990 0.0000
vt 0.5870 0.1915 0.0000
vt 0.5101 0.1990 0.0000
vt 0.4358 0.2214 0.0000
vt 0.3672 0.2581 0.0000
vt 0.3073 0.3073 0.0000
vt 0.2582 0.3674 0.0000
vt 0.2215 0.4358 0.0000
vt 0.1991 0.5100 0.0000
vt 0.1912 0.5870 0.0000
vt 0.1991 0.6643 0.0000
vt 0.2215 0.7385 0.0000
vt 0.2582 0.8069 0.0000
vt 0.3073 0.8670 0.0000
vt 0.3672 0.9162 0.0000
vt 0.4358 0.9530 0.0000
vt 0.5101 0.9753 0.0000
# 132 texture coords

o Group21042
g Group21042
usemtl Material__47
s 1
f 1/1/1 2/2/2 3/3/3 
f 1/1/1 3/3/3 4/4/4 
f 1/1/1 4/4/4 5/5/5 
f 1/1/1 5/5/5 6/6/6 
f 1/1/1 6/6/6 7/7/7 
f 1/1/1 7/7/7 8/8/8 
f 1/1/1 8/8/8 9/9/9 
f 1/1/1 9/9/9 10/10/10 
f 1/1/1 10/10/10 11/11/11 
f 1/1/1 11/11/11 12/12/12 
f 1/1/1 12/12/12 13/13/13 
f 1/1/1 13/13/13 14/14/14 
f 1/1/1 14/14/14 15/15/15 
f 1/1/1 15/15/15 16/16/16 
f 1/1/1 16/16/16 17/17/17 
f 1/1/1 17/17/17 18/18/18 
f 1/1/1 18/18/18 19/19/19 
f 1/1/1 19/19/19 20/20/20 
f 1/1/1 20/20/20 21/21/21 
f 1/1/1 21/21/21 22/22/22 
f 1/1/1 22/22/22 23/23/23 
f 1/1/1 23/23/23 24/24/24 
f 1/1/1 24/24/24 25/25/25 
f 1/1/1 25/25/25 26/26/26 
f 1/1/1 26/26/26 27/27/27 
f 1/1/1 27/27/27 28/28/28 
f 1/1/1 28/28/28 29/29/29 
f 1/1/1 29/29/29 30/30/30 
f 1/1/1 30/30/30 31/31/31 
f 1/1/1 31/31/31 32/32/32 
f 1/1/1 32/32/32 33/33/33 
f 1/1/1 33/33/33 2/2/2 
s 2
f 3/34/3 2/35/2 34/36/34 35/37/35 
f 4/38/4 3/34/3 35/37/35 36/39/36 
f 5/40/5 4/38/4 36/39/36 37/41/37 
f 6/42/6 5/40/5 37/41/37 38/43/38 
f 7/44/7 6/42/6 38/43/38 39/45/39 
f 8/46/8 7/44/7 39/45/39 40/47/40 
f 9/48/9 8/46/8 40/47/40 41/49/41 
f 10/50/10 9/48/9 41/49/41 42/51/42 
f 11/52/11 10/50/10 42/51/42 43/53/43 
f 12/54/12 11/52/11 43/53/43 44/55/44 
f 13/56/13 12/54/12 44/55/44 45/57/45 
f 14/58/14 13/56/13 45/57/45 46/59/46 
f 15/60/15 14/58/14 46/59/46 47/61/47 
f 16/62/16 15/60/15 47/61/47 48/63/48 
f 17/64/17 16/62/16 48/63/48 49/65/49 
f 18/66/18 17/64/17 49/65/49 50/67/50 
f 19/68/19 18/66/18 50/67/50 51/69/51 
f 20/70/20 19/68/19 51/69/51 52/71/52 
f 21/72/21 20/73/20 52/74/52 53/75/53 
f 22/76/22 21/72/21 53/75/53 54/77/54 
f 23/78/23 22/76/22 54/77/54 55/79/55 
f 24/80/24 23/78/23 55/79/55 56/81/56 
f 25/82/25 24/80/24 56/81/56 57/83/57 
f 26/84/26 25/82/25 57/83/57 58/85/58 
f 27/86/27 26/84/26 58/85/58 59/87/59 
f 28/88/28 27/86/27 59/87/59 60/89/60 
f 29/90/29 28/88/28 60/89/60 61/91/61 
f 30/92/30 29/90/29 61/91/61 62/93/62 
f 31/94/31 30/92/30 62/93/62 63/95/63 
f 32/96/32 31/94/31 63/95/63 64/97/64 
f 33/98/33 32/96/32 64/97/64 65/99/65 
f 2/35/2 33/98/33 65/99/65 34/36/34 
s 1
f 34/100/34 66/101/66 35/102/35 
f 35/102/35 66/101/66 36/103/36 
f 36/103/36 66/101/66 37/104/37 
f 37/104/37 66/101/66 38/105/38 
f 38/105/38 66/101/66 39/106/39 
f 39/106/39 66/101/66 40/107/40 
f 40/107/40 66/101/66 41/108/41 
f 41/108/41 66/101/66 42/109/42 
f 42/109/42 66/101/66 43/110/43 
f 43/110/43 66/101/66 44/111/44 
f 44/111/44 66/101/66 45/112/45 
f 45/112/45 66/101/66 46/113/46 
f 46/113/46 66/101/66 47/114/47 
f 47/114/47 66/101/66 48/115/48 
f 48/115/48 66/101/66 49/116/49 
f 49/116/49 66/101/66 50/117/50 
f 50/117/50 66/101/66 51/118/51 
f 51/118/51 66/101/66 52/119/52 
f 52/119/52 66/101/66 53/120/53 
f 53/120/53 66/101/66 54/121/54 
f 54/121/54 66/101/66 55/122/55 
f 55/122/55 66/101/66 56/123/56 
f 56/123/56 66/101/66 57/124/57 
f 57/124/57 66/101/66 58/125/58 
f 58/125/58 66/101/66 59/126/59 
f 59/126/59 66/101/66 60/127/60 
f 60/127/60 66/101/66 61/128/61 
f 61/128/61 66/101/66 62/129/62 
f 62/129/62 66/101/66 63/130/63 
f 63/130/63 66/101/66 64/131/64 
f 64/131/64 66/101/66 65/132/65 
f 65/132/65 66/101/66 34/100/34 
# 32 polygons - 64 triangles

